<?xml version="1.0" encoding="UTF-8"?>
<svg xmlns="http://www.w3.org/2000/svg" xmlns:xlink="http://www.w3.org/1999/xlink" width="200pt" height="800pt" viewBox="0 0 200 800" version="1.1">
<g id="surface1">
<rect x="0" y="0" width="200" height="800" style="fill:rgb(100%,100%,100%);fill-opacity:1;stroke:none;"/>
<path style="fill:none;stroke-width:2;stroke-linecap:butt;stroke-linejoin:miter;stroke:rgb(100%,0%,0%);stroke-opacity:1;stroke-miterlimit:10;" d="M -214.160156 399.535156 C -184.238281 370.269531 -154.320313 343.554688 -124.398438 350.191406 C -94.480469 356.832031 -64.558594 396.828125 -34.640625 422.097656 C -4.71875 447.371094 25.199219 457.917969 55.121094 440.371094 C 85.039063 422.820313 114.960938 377.179688 144.878906 359.628906 C 174.800781 342.082031 204.71875 352.628906 234.640625 377.902344 C 264.558594 403.171875 294.480469 443.167969 324.398438 449.808594 C 354.320313 456.445313 384.238281 429.730469 414.160156 400.464844 "/>
<path style="fill:none;stroke-width:1;stroke-linecap:butt;stroke-linejoin:miter;stroke:rgb(50%,50%,50%);stroke-opacity:1;stroke-miterlimit:10;" d="M -214.160156 399.535156 L -184.238281 370.269531 L -124.398438 316.835938 L -34.640625 436.820313 L 55.121094 468.464844 L 144.878906 331.535156 L 234.640625 363.179688 L 324.398438 483.164063 L 384.238281 429.730469 L 414.160156 400.464844 "/>
<path style=" stroke:none;fill-rule:nonzero;fill:rgb(25%,25%,25%);fill-opacity:1;" d="M 58.121094 468.464844 C 58.121094 472.464844 52.121094 472.464844 52.121094 468.464844 C 52.121094 464.464844 58.121094 464.464844 58.121094 468.464844 "/>
<path style=" stroke:none;fill-rule:nonzero;fill:rgb(25%,25%,25%);fill-opacity:1;" d="M 147.878906 331.535156 C 147.878906 335.535156 141.878906 335.535156 141.878906 331.535156 C 141.878906 327.535156 147.878906 327.535156 147.878906 331.535156 "/>
</g>
</svg>
